<svg 
class="img-fluid" 
id="outputsvg" 
xmlns="http://www.w3.org/2000/svg" 
style="transform: none; transform-origin: 50% 50%; cursor: move; max-height: none; transition: none 0s ease 0s;" width="4000" 
height="2333" 
viewBox="0 0 40000 23330"><g 
id="l2se4kHea5egWwrAVfFypCP" 
fill="rgb(0,89,131)" 
style="transform: none;"><g 
style="transform: none;">
<path 
id="pwOnyKQJy" 
d="M13634 12835 c17 -45 117 -450 145 -585 176 -854 226 -1799 146 -2755 -152 -1808 -759 -3656 -1728 -5265 -333 -552 -752 -1127 -1183 -1622 -147 -169 -649 -683 -807 -826 l-68 -62 98 0 c219 0 680 34 973 71 2419 307 4628 1584 6102 3529 69 91 171 232 228 314 l103 148 -12 82 c-85 561 -265 1261 -473 1846 -168 471 -331 853 -564 1320 -249 497 -464 869 -769 1325 -629 942 -1307 1715 -2169 2474 -25 23 -28 23 -22 6z">
</path>
<path id="plppbcP9c" d="M29220 11205 l0 -1565 160 0 160 0 -5 113 c-3 61 -8 124 -10 140 -5 33 10 36 26 5 7 -12 35 -47 63 -77 147 -156 361 -220 703 -208 279 9 429 61 558 191 135 136 197 330 226 709 14 181 6 496 -16 647 -58 390 -199 582 -485 659 -269 73 -643 45 -844 -62 -66 -35 -163 -120 -185 -161 -8 -14 -18 -26 -23 -26 -4 0 -8 270 -8 600 l0 600 -160 0 -160 0 0 -1565z m1108 385 c360 -45 446 -208 446 -840 -1 -274 -11 -404 -44 -547 -57 -242 -178 -319 -515 -330 -254 -8 -408 27 -505 114 -103 93 -143 239 -159 582 -20 420 25 735 123 864 97 128 367 193 654 157z"></path><path id="pr2yFxhma" d="M17520 11849 c-255 -24 -456 -103 -544 -213 -52 -65 -73 -105 -105 -203 -67 -199 -99 -554 -81 -889 27 -487 126 -718 360 -832 152 -75 307 -102 587 -102 365 0 595 57 725 178 106 99 150 224 173 495 l6 67 -159 0 -159 0 -6 -97 c-13 -224 -84 -315 -282 -359 -107 -23 -427 -30 -537 -11 -101 18 -189 55 -236 100 -101 97 -142 314 -142 758 0 539 59 728 248 798 139 52 390 73 599 52 307 -31 363 -99 389 -463 l6 -88 154 0 154 0 0 118 c0 141 -18 229 -64 325 -102 210 -316 331 -648 367 -110 11 -312 11 -438 -1z"></path><path id="pOnbhvgS3" d="M21330 11853 c-209 -21 -321 -47 -435 -103 -185 -89 -273 -255 -322 -604 -25 -175 -24 -665 0 -826 39 -255 103 -415 204 -511 74 -70 126 -100 238 -138 128 -42 272 -61 473 -61 354 0 592 52 720 157 56 46 114 134 142 216 25 73 50 228 50 310 l0 57 -159 0 -159 0 -5 -107 c-5 -125 -15 -164 -60 -230 -68 -102 -204 -137 -522 -138 -235 0 -298 9 -397 59 -142 71 -187 201 -210 608 -9 160 -9 253 0 405 23 378 74 514 217 579 118 54 317 80 530 71 234 -11 361 -49 409 -125 46 -71 76 -216 76 -363 l0 -69 161 0 162 0 -6 133 c-5 142 -21 217 -66 312 -117 249 -424 379 -879 373 -70 0 -143 -3 -162 -5z"></path><path id="pRiMyTJPA" d="M25325 11854 c-194 -19 -329 -51 -432 -100 -171 -82 -249 -224 -300 -548 -27 -166 -26 -780 1 -951 59 -379 165 -522 442 -595 183 -47 533 -65 776 -39 220 24 396 88 486 178 125 125 187 381 199 826 11 425 -33 759 -124 939 -100 198 -335 284 -793 291 -118 2 -233 1 -255 -1z m480 -274 c153 -28 244 -80 283 -164 62 -130 94 -533 74 -902 -22 -399 -58 -511 -184 -573 -110 -54 -185 -65 -443 -66 -251 0 -336 12 -442 61 -98 47 -137 120 -170 324 -25 151 -25 797 0 947 19 120 50 216 82 258 45 60 165 107 324 125 95 11 396 5 476 -10z"></path><path id="p1CkGl3GUu" d="M32872 11849 c-462 -54 -677 -330 -623 -799 37 -318 159 -454 471 -522 95 -20 131 -22 370 -22 303 0 401 14 535 78 66 31 155 104 155 127 0 5 5 9 11 9 9 0 10 -67 6 -247 -11 -504 -66 -583 -429 -615 -142 -13 -334 -1 -442 27 -182 48 -276 149 -276 298 l0 67 -156 0 -157 0 6 -107 c7 -118 21 -182 60 -266 88 -194 304 -267 781 -267 305 0 504 32 653 105 168 83 251 251 273 555 5 74 10 456 10 848 l0 712 -161 0 -161 0 6 -42 c3 -24 9 -78 12 -122 l7 -79 -66 66 c-108 108 -264 171 -492 197 -104 11 -288 11 -393 -1z m563 -278 c286 -60 401 -206 374 -475 -28 -275 -167 -350 -644 -350 -455 0 -555 55 -586 318 -8 71 -8 121 0 191 29 242 99 304 391 339 83 10 377 -4 465 -23z"></path><path id="pN9QEfM6h" d="M37535 11854 c-230 -23 -375 -53 -465 -99 -169 -85 -250 -253 -250 -515 l0 -110 165 0 165 0 0 83 c1 170 42 273 129 320 88 48 178 61 441 61 511 0 623 -69 624 -384 1 -126 -20 -200 -71 -260 -71 -83 -102 -90 -433 -100 -509 -16 -737 -66 -859 -188 -89 -89 -129 -208 -138 -402 -11 -263 55 -452 189 -536 53 -34 168 -71 279 -90 128 -22 540 -31 679 -15 415 49 620 216 620 507 l0 84 -154 0 -153 0 -6 -68 c-22 -231 -75 -261 -487 -269 -343 -8 -506 14 -569 77 -47 47 -65 117 -66 250 0 176 44 269 156 325 65 33 138 42 514 60 176 9 349 22 385 29 202 43 339 151 401 315 61 161 64 398 8 569 -85 256 -303 349 -829 357 -129 2 -253 1 -275 -1z"></path><path id="pzVhFWakn" d="M19030 10265 l0 -1565 160 0 160 0 0 1565 0 1565 -160 0 -160 0 0 -1565z"></path><path id="p1G4jdMwfW" d="M19820 10735 l0 -1095 160 0 160 0 0 1095 0 1095 -160 0 -160 0 0 -1095z"></path><path id="p18X9XFQ1J" d="M22800 10265 l0 -1565 155 0 155 0 0 910 0 910 78 0 79 0 387 -440 387 -440 196 0 196 0 -20 23 c-11 12 -221 238 -467 502 l-446 479 44 46 c113 118 1043 1117 1049 1128 7 9 -36 12 -200 12 l-209 0 -464 -530 -465 -530 -72 0 -73 0 0 530 0 530 -155 0 -155 0 0 -1565z"></path><path id="pMlCS1qzx" d="M26910 10735 l0 -1095 153 0 152 0 -3 97 c-2 54 -2 122 0 152 l3 55 44 -68 c73 -114 187 -188 360 -233 80 -21 127 -26 281 -30 516 -15 734 98 810 419 35 148 39 263 40 1041 l0 757 -160 0 -159 0 -3 -832 -3 -833 -23 -68 c-59 -174 -210 -237 -541 -224 -162 6 -228 20 -339 72 -98 46 -180 129 -227 227 -64 134 -65 150 -65 944 l0 714 -160 0 -160 0 0 -1095z"></path><path id="phXz978Il" d="M31530 10265 l0 -1565 155 0 155 0 0 1565 0 1565 -155 0 -155 0 0 -1565z"></path><path id="p36vhrcBq" d="M34590 10735 l0 -1095 153 0 152 0 -3 97 c-2 54 -2 122 0 152 l3 55 44 -68 c73 -114 187 -188 360 -233 131 -34 420 -44 589 -19 311 46 441 152 502 408 35 148 39 263 40 1041 l0 757 -160 0 -159 0 -3 -832 -3 -833 -23 -68 c-59 -174 -210 -237 -541 -224 -162 6 -228 20 -339 72 -98 46 -180 129 -227 227 -64 134 -65 150 -65 944 l0 714 -160 0 -160 0 0 -1095z"></path><path id="pMsfwmg9g" d="M19820 8880 l0 -180 160 0 160 0 0 180 0 180 -160 0 -160 0 0 -180z"></path></g></g><g id="l4XIYr9erlXjiAOMX9lDfQw" fill="rgb(51,149,198)" style="transform: none;"><g style="transform: none;"><path id="p1GQlyPOg0" d="M2393 15417 c-323 -543 -623 -1206 -816 -1802 -527 -1623 -588 -3366 -176 -5020 120 -481 305 -1021 497 -1455 l60 -135 114 -48 c287 -122 758 -285 1109 -386 1108 -318 2376 -472 3550 -433 1017 35 1903 161 2824 404 190 49 498 139 507 147 4 3 -66 28 -155 55 -2113 640 -4187 2267 -5643 4426 -873 1296 -1472 2697 -1760 4120 -25 124 -47 226 -48 227 -1 2 -30 -43 -63 -100z"></path><path id="p142766QAF" d="M19120 14285 c0 -44 1 -44 29 -39 64 13 113 -39 150 -160 26 -83 26 -86 2 -86 -15 0 -27 -23 -60 -112 -22 -62 -83 -230 -135 -373 l-94 -260 50 -3 c28 -2 54 0 58 5 4 4 58 156 120 337 63 181 116 323 119 315 3 -8 42 -158 86 -334 l81 -320 57 -3 c43 -2 56 0 52 10 -2 7 -54 198 -114 423 -60 226 -116 428 -124 451 -52 143 -110 194 -223 194 l-54 0 0 -45z"></path><path id="pJVJeW2nW" d="M27048 14317 c-25 -8 -58 -21 -73 -31 -32 -21 -60 -82 -70 -148 l-6 -48 50 0 50 0 6 38 c15 95 45 114 191 114 183 0 214 -32 214 -220 l0 -113 -35 35 c-45 45 -98 60 -215 60 -84 1 -102 -3 -152 -27 -98 -48 -131 -137 -131 -352 0 -216 33 -304 131 -352 51 -25 68 -28 157 -28 121 0 164 14 218 69 l40 41 -5 -52 -5 -53 54 0 54 0 -3 453 c-3 436 -4 454 -24 497 -44 94 -104 121 -279 126 -79 3 -136 -1 -167 -9z m279 -420 c41 -22 59 -56 74 -142 16 -92 7 -287 -16 -342 -26 -66 -77 -86 -204 -81 -151 5 -176 30 -192 196 -11 113 3 277 27 323 26 50 83 70 189 66 60 -2 101 -9 122 -20z"></path><path id="pVkLd6vPs" d="M16840 13785 l0 -535 50 0 50 0 0 46 0 46 39 -35 c89 -80 288 -91 394 -21 57 37 85 106 99 243 16 148 1 282 -39 360 -24 47 -37 60 -87 85 -52 27 -68 30 -150 30 -113 0 -166 -15 -217 -61 l-39 -35 0 206 0 206 -50 0 -50 0 0 -535z m437 116 c26 -12 48 -32 58 -51 27 -53 41 -206 28 -320 -18 -163 -45 -193 -179 -199 -47 -1 -100 0 -119 3 -54 10 -91 48 -106 109 -18 70 -18 298 0 359 15 52 53 95 97 108 55 16 176 11 221 -9z"></path><path id="p40RaXxZS" d="M18505 14004 c-180 -28 -215 -81 -223 -336 -7 -240 18 -342 97 -386 100 -56 353 -56 455 1 77 43 100 138 94 378 -7 229 -34 292 -143 325 -51 15 -225 26 -280 18z m248 -104 c53 -26 61 -57 65 -250 3 -203 -7 -261 -51 -294 -26 -19 -42 -21 -162 -21 -160 0 -182 10 -203 91 -20 76 -12 389 11 432 10 17 19 32 20 32 1 0 20 7 42 15 50 19 236 15 278 -5z"></path><path id="pXKuV84F8" d="M19931 13999 c-152 -26 -190 -76 -212 -281 -20 -194 18 -376 88 -426 88 -62 343 -70 452 -14 70 36 93 96 106 270 l8 92 -273 0 -273 0 5 95 c8 148 37 177 184 183 177 8 232 -15 241 -101 l6 -47 55 0 55 0 -7 52 c-10 73 -41 124 -90 148 -74 35 -228 48 -345 29z m326 -510 c-12 -137 -50 -163 -234 -157 -95 3 -116 6 -140 24 -33 25 -51 78 -52 152 l-1 52 216 0 217 0 -6 -71z"></path><path id="pXYEzUuLT" d="M20739 14001 c-69 -13 -133 -45 -156 -77 -74 -104 -83 -430 -15 -564 23 -48 35 -59 87 -85 57 -29 66 -30 185 -30 148 0 209 15 255 61 33 32 55 95 55 153 0 30 -1 31 -49 31 l-48 0 -7 -49 c-7 -57 -40 -95 -87 -105 -18 -3 -72 -6 -121 -6 -151 0 -180 25 -199 173 -12 90 -5 266 13 319 24 74 77 98 215 98 96 0 148 -14 168 -44 8 -12 18 -50 21 -84 l7 -62 55 0 54 0 -7 57 c-9 73 -17 93 -55 136 -43 50 -120 77 -234 82 -50 2 -112 0 -137 -4z"></path><path id="psLmJuOW8" d="M21463 14000 c-50 -12 -96 -43 -118 -80 -19 -32 -20 -55 -23 -307 l-3 -273 -50 0 -49 0 0 -45 0 -45 50 0 50 0 0 -90 0 -90 55 0 55 0 0 90 0 90 145 0 145 0 0 45 0 45 -145 0 -146 0 3 266 3 266 28 24 c31 26 101 33 139 13 27 -14 48 -69 48 -124 l0 -45 51 0 52 0 -7 65 c-8 79 -16 102 -51 143 -42 50 -144 73 -232 52z"></path><path id="p7feNb98W" d="M22031 13999 c-64 -11 -127 -44 -153 -79 -35 -48 -50 -161 -45 -335 5 -183 19 -237 73 -284 43 -38 87 -51 205 -58 109 -7 212 8 271 38 58 29 84 94 98 234 10 114 1 272 -20 348 -17 58 -64 104 -123 122 -64 20 -233 27 -306 14z m274 -99 c16 -9 36 -28 44 -44 32 -67 32 -395 0 -462 -23 -49 -69 -64 -189 -63 -198 1 -213 17 -218 254 -4 161 6 255 31 289 7 9 30 23 52 31 52 20 237 16 280 -5z"></path><path id="p1FblxkdXI" d="M22816 14000 c-130 -21 -186 -78 -186 -188 l0 -52 55 0 55 0 0 43 c0 92 38 116 190 116 113 1 165 -10 194 -39 17 -17 21 -33 21 -90 0 -62 -3 -72 -27 -96 -26 -26 -33 -28 -170 -35 -79 -4 -166 -15 -195 -23 -87 -27 -119 -85 -116 -207 3 -115 44 -159 167 -180 81 -13 253 -7 306 12 78 27 130 89 130 154 0 24 -3 25 -55 25 -54 0 -55 -1 -55 -29 0 -16 -9 -39 -19 -52 -19 -23 -24 -24 -170 -24 -140 0 -152 1 -172 21 -17 17 -21 34 -22 82 -1 112 22 125 243 139 156 10 198 25 237 84 18 27 27 57 30 101 10 122 -30 196 -120 223 -64 19 -241 27 -321 15z"></path><path id="p1AdNIikHb" d="M25096 14000 c-59 -15 -96 -41 -117 -82 -17 -34 -19 -61 -19 -308 l0 -270 -55 0 -55 0 0 -45 0 -45 55 0 55 0 0 -90 0 -90 50 0 50 0 0 90 0 90 145 0 145 0 0 45 0 45 -145 0 -145 0 0 245 c0 313 7 335 114 335 71 0 99 -30 104 -114 l4 -66 49 0 49 0 0 48 c0 93 -37 164 -101 197 -37 19 -133 27 -183 15z"></path><path id="p1A7MgCGzT" d="M25672 13999 c-153 -26 -199 -98 -209 -329 -11 -252 35 -375 155 -410 106 -32 318 -20 393 22 66 37 99 132 99 285 l0 73 -271 0 -272 0 7 86 c12 157 40 185 193 192 178 8 233 -16 233 -103 l0 -45 55 0 55 0 0 43 c0 62 -36 127 -86 154 -69 38 -229 52 -352 32z m328 -499 c0 -137 -41 -170 -213 -170 -159 0 -199 31 -212 163 l-7 67 216 0 216 0 0 -60z"></path><path id="pDkO5KAbq" d="M27910 13999 c-146 -24 -193 -86 -211 -276 -11 -119 -2 -253 23 -335 16 -53 70 -109 123 -126 65 -22 229 -26 313 -8 88 18 128 45 153 101 17 38 38 181 39 258 l0 27 -271 0 -272 0 5 95 c8 148 37 177 184 183 177 8 232 -15 241 -101 l6 -47 55 0 55 0 -7 52 c-10 73 -41 124 -90 148 -74 35 -227 48 -346 29z m326 -511 c-13 -138 -49 -162 -233 -156 -95 3 -116 6 -140 24 -33 25 -51 78 -52 152 l-1 52 216 0 217 0 -7 -72z"></path><path id="pQYFmk70J" d="M29483 13998 c-54 -12 -107 -61 -122 -113 -7 -24 -11 -139 -11 -292 l0 -253 -50 0 -50 0 0 -45 0 -45 50 0 50 0 0 -90 0 -90 55 0 55 0 0 90 0 90 145 0 145 0 0 45 0 45 -145 0 -145 0 0 261 0 261 29 29 c25 24 38 29 78 29 27 0 58 -7 70 -15 25 -17 43 -71 43 -127 l0 -38 51 0 52 0 -7 62 c-14 116 -49 169 -130 193 -55 17 -100 18 -163 3z"></path><path id="pOAlOdpcN" d="M30070 13999 c-166 -27 -210 -106 -210 -374 0 -228 26 -300 125 -350 58 -29 65 -30 195 -30 257 0 309 47 326 295 l7 100 -273 0 -273 0 5 88 c6 98 19 135 61 166 25 19 42 21 155 21 70 0 140 -4 155 -8 32 -9 57 -56 57 -107 0 -30 0 -30 56 -30 l57 0 -6 51 c-9 75 -36 120 -88 146 -77 39 -223 52 -349 32z m328 -507 c-10 -136 -44 -162 -208 -161 -58 0 -121 5 -140 12 -47 17 -72 63 -78 148 l-5 69 218 0 218 0 -5 -68z"></path><path id="pTf7ATvME" d="M30844 14000 c-139 -20 -194 -78 -194 -202 l0 -38 55 0 55 0 0 38 c1 92 49 122 195 122 174 0 215 -26 215 -132 0 -33 -5 -68 -11 -80 -17 -32 -71 -48 -166 -48 -108 0 -206 -15 -253 -39 -22 -11 -43 -33 -58 -62 -20 -38 -23 -55 -20 -124 5 -89 23 -132 67 -158 59 -34 254 -49 363 -26 106 22 168 80 168 158 0 30 -1 31 -48 31 l-48 0 -12 -45 c-16 -61 -35 -67 -204 -63 -165 4 -170 6 -176 102 -4 59 -2 66 25 96 l30 34 144 8 c167 11 207 19 247 53 45 38 62 83 62 166 0 98 -25 150 -85 179 -74 36 -224 49 -351 30z"></path><path id="pbz7aUFzD" d="M32075 14004 c-117 -23 -129 -28 -166 -61 -56 -50 -70 -106 -76 -288 -8 -241 22 -331 125 -382 54 -26 64 -28 192 -28 258 0 313 48 327 293 l6 102 -273 0 -273 0 5 84 c7 100 29 155 73 175 36 17 172 26 249 17 76 -10 97 -30 104 -94 l5 -52 55 0 55 0 -6 55 c-11 107 -66 156 -193 175 -68 9 -170 11 -209 4z m293 -518 c-8 -129 -44 -156 -207 -156 -170 0 -205 26 -218 166 l-6 64 218 0 218 0 -5 -74z"></path><path id="pBGeADowL" d="M34057 13996 c-81 -22 -135 -76 -157 -155 -5 -20 -10 -158 -10 -313 l0 -278 49 0 49 0 4 288 c3 319 6 333 68 365 28 15 53 17 125 15 108 -4 150 -24 180 -83 18 -37 20 -64 23 -312 l3 -273 55 0 54 0 0 375 0 375 -55 0 -56 0 7 -52 6 -53 -31 33 c-17 18 -51 42 -75 53 -58 25 -176 33 -239 15z"></path><path id="pprfr5PiO" d="M36130 13999 c-166 -27 -213 -112 -212 -384 1 -211 33 -294 132 -343 51 -25 64 -27 185 -27 221 0 287 40 304 187 l7 58 -53 0 -53 0 0 -32 c0 -52 -30 -101 -70 -115 -19 -7 -80 -12 -135 -12 -187 -1 -207 29 -202 309 4 250 19 271 202 278 165 6 215 -26 215 -140 l0 -48 56 0 57 0 -6 60 c-4 33 -13 73 -21 88 -55 106 -212 152 -406 121z"></path><path id="p1LviQkr7" d="M37512 14000 c-165 -30 -206 -105 -207 -375 0 -193 14 -254 74 -314 52 -52 108 -66 261 -65 109 0 132 3 178 23 65 29 98 80 108 164 l7 57 -51 0 -51 0 -7 -45 c-14 -94 -62 -119 -221 -113 -118 4 -149 19 -171 84 -19 54 -27 264 -14 349 19 119 55 147 202 153 167 7 202 -15 216 -132 l7 -56 48 0 49 0 0 53 c-1 98 -52 168 -151 202 -54 19 -206 27 -277 15z"></path><path id="p1GLXwLQEs" d="M17670 13625 l0 -375 51 0 51 0 -7 48 -6 47 29 -32 c106 -114 326 -102 378 22 7 17 16 59 20 93 l7 62 -56 0 -55 0 4 -37 c6 -46 -20 -102 -56 -121 -15 -8 -49 -12 -87 -9 -74 4 -106 23 -143 88 -25 43 -25 47 -28 317 l-4 272 -49 0 -49 0 0 -375z"></path><path id="pw3rpyZY8" d="M23830 13625 l0 -375 50 0 50 0 0 375 0 375 -50 0 -50 0 0 -375z"></path><path id="p9DXbcw5r" d="M24130 13625 l0 -375 50 0 50 0 0 50 0 51 30 -35 c47 -53 105 -71 235 -71 136 0 187 20 226 88 24 42 24 44 27 355 l3 312 -50 0 -51 0 -1 -282 c0 -192 -4 -294 -12 -318 -18 -52 -62 -70 -167 -70 -137 1 -207 46 -229 150 -6 29 -11 154 -11 285 l0 235 -50 0 -50 0 0 -375z"></path><path id="p1GL1GCysT" d="M26290 13465 l0 -535 50 0 50 0 0 535 0 535 -50 0 -50 0 0 -535z"></path><path id="plb301twP" d="M26590 13625 l0 -375 55 0 55 0 0 375 0 375 -55 0 -55 0 0 -375z"></path><path id="pcVjpTHTK" d="M28520 13625 l0 -375 50 0 50 0 0 53 0 52 31 -33 c59 -63 100 -77 229 -77 103 0 120 3 165 25 40 20 55 35 75 75 25 50 25 53 28 353 l3 302 -55 0 -55 0 -3 -305 -3 -305 -28 -27 c-27 -27 -30 -28 -140 -28 -106 0 -116 2 -154 27 -74 49 -78 67 -81 371 l-3 267 -54 0 -55 0 0 -375z"></path><path id="pfUQNkO1n" d="M32660 13625 l0 -375 50 0 50 0 0 50 0 51 30 -35 c47 -53 105 -71 235 -71 136 0 187 20 226 88 24 42 24 44 27 355 l3 312 -50 0 -50 0 -3 -292 c-3 -254 -5 -297 -20 -324 -22 -41 -61 -54 -160 -54 -87 0 -137 16 -181 58 -49 47 -57 100 -57 369 l0 243 -50 0 -50 0 0 -375z"></path><path id="pfFM7peDl" d="M34710 13625 l0 -375 50 0 51 0 -7 50 c-4 28 -4 50 -1 50 2 0 22 -18 44 -39 55 -55 128 -75 248 -68 103 6 152 24 188 66 40 48 47 109 47 411 l0 280 -50 0 -50 0 0 -262 c-1 -295 -6 -339 -44 -377 -25 -25 -31 -26 -134 -26 -131 0 -173 17 -212 86 -25 43 -25 47 -28 312 l-3 267 -50 0 -49 0 0 -375z"></path><path id="pE0Yy77Ok" d="M36720 13465 l0 -535 50 0 50 0 0 535 0 535 -50 0 -50 0 0 -535z"></path><path id="pK7ZDnpO8" d="M37020 13625 l0 -375 50 0 50 0 0 375 0 375 -50 0 -50 0 0 -375z"></path><path id="pS56G2IMz" d="M38100 13465 l0 -535 55 0 55 0 0 310 0 310 28 0 c23 0 48 -24 157 -149 l130 -150 64 0 64 -1 -19 22 c-10 13 -81 89 -158 171 l-138 149 29 31 c16 18 92 100 168 182 77 83 149 160 159 173 l19 22 -69 -1 -69 0 -160 -185 c-119 -136 -166 -184 -182 -184 l-23 0 0 185 0 185 -55 0 -55 0 0 -535z"></path><path id="p1HU0IUBc3" d="M23830 12990 l0 -60 50 0 50 0 0 60 0 60 -50 0 -50 0 0 -60z"></path><path id="pqRnvoq9M" d="M26590 12990 l0 -60 55 0 55 0 0 60 0 60 -55 0 -55 0 0 -60z"></path><path id="pESiVqfuc" d="M37020 12990 l0 -60 50 0 50 0 0 60 0 60 -50 0 -50 0 0 -60z"></path><path id="p9UG7p2IL" d="M10169 11216 c-128 -36 -233 -110 -309 -218 -72 -103 -95 -178 -95 -313 0 -135 23 -210 95 -313 106 -151 262 -232 451 -232 235 0 442 151 518 377 12 34 21 79 21 99 0 27 5 37 20 41 14 4 20 14 20 34 0 22 -5 29 -20 29 -16 0 -20 7 -20 35 0 20 -9 64 -21 98 -58 174 -199 307 -378 361 -65 19 -215 20 -282 2z"></path></g></g><g id="lFUgnfxyyDKf5S3gj9qS5e" fill="rgb(0,116,170)" style="transform: none;"><g style="transform: none;"><path id="p9EcNYwvS" d="M13584 8679 c-115 -117 -346 -328 -499 -454 -925 -770 -2048 -1376 -3330 -1798 -2124 -699 -4461 -807 -6555 -301 -234 56 -587 157 -797 228 -146 49 -161 52 -149 33 7 -12 51 -85 96 -162 510 -859 1205 -1673 1989 -2328 1433 -1198 3188 -1933 5034 -2107 l118 -11 53 40 c369 285 898 780 1250 1171 1392 1544 2382 3487 2841 5573 24 111 43 202 42 204 -2 1 -43 -38 -93 -88z"></path></g></g><g id="lav9WWxRQHKixmQDD0X2mv" fill="rgb(117,181,227)" style="transform: none;"><g style="transform: none;"><path id="pfffM7mv6" d="M9715 19789 c-1364 -69 -2704 -449 -3903 -1106 -1135 -622 -2115 -1467 -2893 -2495 l-105 -139 13 -112 c273 -2308 1403 -4679 3113 -6527 166 -179 401 -420 501 -510 l85 -79 -32 139 c-99 425 -167 938 -195 1465 -14 272 -6 913 15 1185 122 1541 538 3019 1252 4450 444 888 937 1644 1554 2380 357 425 857 928 1263 1269 63 53 84 76 75 82 -16 11 -525 9 -743 -2z"></path></g></g><g id="lRMBIDEwwSYDE18dyvKZWE" fill="rgb(167,207,238)" style="transform: none;"><g style="transform: none;"><path id="p1FcbATxrS" d="M10844 19572 c-925 -705 -1767 -1617 -2469 -2672 -794 -1194 -1382 -2532 -1721 -3915 -24 -99 -44 -184 -44 -188 0 -4 66 54 147 129 1565 1454 3921 2416 6433 2628 502 43 1289 55 1725 28 973 -61 1837 -213 2665 -468 128 -40 422 -139 474 -160 23 -9 -15 63 -178 336 -296 496 -674 1005 -1067 1435 -140 154 -490 502 -639 637 -277 250 -666 552 -990 770 -1201 809 -2534 1311 -3963 1493 -278 35 -254 39 -373 -53z"></path></g></g><g id="l1aTHuWwyJdUcK9SER68CfS" fill="rgb(35,31,32)" style="transform: none;"><g style="transform: none;"><path id="p633XBQlI" d="M10280 12065 l0 -245 -44 0 c-112 0 -313 -55 -440 -120 -341 -175 -568 -501 -616 -883 l-12 -97 -244 0 -244 0 0 -35 0 -35 244 0 243 0 12 -89 c34 -267 143 -492 326 -676 184 -183 412 -294 674 -326 l101 -13 0 -243 0 -243 30 0 30 0 0 244 0 244 68 7 c286 30 541 156 734 365 167 180 277 425 295 657 l6 83 243 0 244 0 0 30 0 30 -245 0 -245 0 0 46 c0 67 -36 231 -70 321 -63 165 -151 294 -291 427 -180 172 -422 282 -660 302 l-79 7 0 243 0 244 -30 0 -30 0 0 -245z m0 -565 l0 -260 30 0 30 0 0 260 0 260 29 0 c15 0 68 -7 117 -15 476 -82 847 -478 890 -950 l7 -75 -262 0 -261 0 0 -30 0 -30 261 0 262 0 -7 -76 c-27 -294 -190 -585 -427 -759 -163 -120 -334 -184 -556 -210 l-53 -6 0 261 0 260 -30 0 -30 0 0 -260 0 -261 -62 7 c-386 41 -703 255 -870 589 -63 125 -90 225 -113 413 l-4 32 260 0 259 0 0 35 0 35 -259 0 -260 0 6 58 c45 490 403 879 887 967 39 7 90 14 114 14 l42 1 0 -260z"></path></g></g></svg>